<svg width="16" height="16" viewBox="0 0 16 16" fill="none" xmlns="http://www.w3.org/2000/svg">
<path fill-rule="evenodd" clip-rule="evenodd" d="M2.66663 2.66667C2.66663 2.48986 2.73686 2.32029 2.86189 2.19526C2.98691 2.07024 3.15648 2 3.33329 2H4.33329C4.48649 2 4.63502 2.05276 4.75389 2.1494C4.87275 2.24605 4.95471 2.38069 4.98596 2.53067L5.29263 4H12.6666C12.7657 4 12.8636 4.02208 12.953 4.06465C13.0425 4.10722 13.1214 4.1692 13.1839 4.24608C13.2464 4.32296 13.291 4.41281 13.3144 4.50909C13.3378 4.60537 13.3395 4.70566 13.3193 4.80267L12.486 8.80267C12.4547 8.95265 12.3728 9.08728 12.2539 9.18393C12.135 9.28058 11.9865 9.33334 11.8333 9.33333H6.40329L6.54196 10H11.3333C11.7578 10.0002 12.1712 10.1355 12.5137 10.3863C12.8563 10.6371 13.1101 10.9903 13.2385 11.3949C13.367 11.7996 13.3633 12.2345 13.2281 12.6369C13.0929 13.0393 12.8332 13.3883 12.4865 13.6333C12.1398 13.8783 11.7242 14.0066 11.2998 13.9997C10.8753 13.9928 10.4641 13.8511 10.1255 13.5949C9.78699 13.3388 9.53874 12.9816 9.41669 12.575C9.29464 12.1684 9.30512 11.7336 9.44663 11.3333H7.88663C8.0164 11.7011 8.03581 12.0989 7.94245 12.4775C7.84909 12.8562 7.64704 13.1994 7.36117 13.4647C7.07531 13.73 6.7181 13.906 6.33351 13.9709C5.94893 14.0358 5.55375 13.9869 5.19663 13.8301C4.8395 13.6733 4.53601 13.4155 4.32351 13.0885C4.111 12.7614 3.99877 12.3794 4.00061 11.9894C4.00245 11.5993 4.11829 11.2184 4.33387 10.8933C4.54945 10.5683 4.85537 10.3134 5.21396 10.16L3.79063 3.33333H3.33329C3.15648 3.33333 2.98691 3.2631 2.86189 3.13807C2.73686 3.01305 2.66663 2.84348 2.66663 2.66667Z" fill="#DEE2EB"/>
</svg>
